# xmcd
#
# Track frame offsets:
#	150
#	23406
#	28207
#	30759
#	32184
#	57878
#	62680
#	65231
#	81153
#	85956
#	88481
#	89989
#	119628
#	124430
#	126981
#	128408
#	150172
#	154974
#	157526
#	183172
#	187973
#	190527
#	192268
#	214772
#	217321
#	218745
#	241198
#	245999
#	247432
#	266221
#	271024
#	273574
#	275004
#	297031
#	301832
#	304381
#	305931
#	330133
#
# Disc length: 4461 seconds
# Revision: 0
# Processed by: cddbd v1.5.2PL0 Copyright (c) Steve Scherf et al.
# Submitted via: dBpowerAMP V12.0
#
DISCID=3c116b26
DTITLE=Various Artist - AV 218 Cross the Border
DYEAR=2000
DGENRE=Country
TTITLE0=Cross the Border - Theme: gtr perc bass horns
TTITLE1=Cross the Border - Broadcast
TTITLE2=Cross the Border - Broadcast
TTITLE3=Cross the Border - Broadcast short intro
TTITLE4=Adios Mis Amigos - Theme: gtr.strgs trmpt
TTITLE5=Adios Mis Amigos - Broadcast
TTITLE6=Adios Mis Amigos - Broadcast short horn intro
TTITLE7=Rio Grande - Theme: perc gtr harmonica
TTITLE8=Rio Grande - Broadcast 
TTITLE9=Rio Grande - Broadcast
TTITLE10=Rio Grande - Broadcast
TTITLE11=Always in My Heart - Theme: gtr strgs bass
TTITLE12=Always in My Heart - Broadcast
TTITLE13=Always in My Heart - Broadcast
TTITLE14=Always in My Heart - Broadcast
TTITLE15=La Linda - Theme: perc bass gtr
TTITLE16=La Linda - Broadcast
TTITLE17=La Linda - Broadcast
TTITLE18=Riverdance - Theme gtr bass hrns strgs
TTITLE19=Riverdance - Broadcast
TTITLE20=Riverdance - Broadcast
TTITLE21=Riverdance - Broadcast
TTITLE22=La Boda - Theme: gtr vln perc strgs
TTITLE23=La Boda - Broadcast
TTITLE24=La Boda - Broadcast
TTITLE25=Rio Amour - Theme: perc gtr strgs
TTITLE26=Rio Amour - Broadcast
TTITLE27=Rio Amour - Broadcast
TTITLE28=Ms Margarita - Theme: perc gtr bass
TTITLE29=Ms Margarita - Broadcast
TTITLE30=Ms Margarita - Broadcast
TTITLE31=Ms Margarita - Broadcast
TTITLE32=Secret Dreams - Theme: bass perc gtr
TTITLE33=Secret Dreams - Broadcast
TTITLE34=Secret Dreams - Broadcast
TTITLE35=Secret Dreams - Broadcast
TTITLE36=The Rio Waltz - Theme: gtr strings perc
TTITLE37=The Rio Waltz - Broadcast
EXTD=
EXTT0=
EXTT1=
EXTT2=
EXTT3=
EXTT4=
EXTT5=
EXTT6=
EXTT7=
EXTT8=
EXTT9=
EXTT10=
EXTT11=
EXTT12=
EXTT13=
EXTT14=
EXTT15=
EXTT16=
EXTT17=
EXTT18=
EXTT19=
EXTT20=
EXTT21=
EXTT22=
EXTT23=
EXTT24=
EXTT25=
EXTT26=
EXTT27=
EXTT28=
EXTT29=
EXTT30=
EXTT31=
EXTT32=
EXTT33=
EXTT34=
EXTT35=
EXTT36=
EXTT37=
PLAYORDER=
